<mxfile host="app.diagrams.net" modified="2024-04-24T17:29:44.333Z" agent="Mozilla/5.0 (Windows NT 10.0; Win64; x64) AppleWebKit/537.36 (KHTML, like Gecko) Chrome/124.0.0.0 Safari/537.36" etag="DEFLulu-Qk20QHj1bDkl" version="24.2.0" type="github">
  <diagram name="Seite-1" id="uA238WNkawi07ZD6kn4u">
    <mxGraphModel dx="1301" dy="559" grid="1" gridSize="10" guides="1" tooltips="1" connect="1" arrows="1" fold="1" page="1" pageScale="1" pageWidth="1654" pageHeight="1169" math="0" shadow="0">
      <root>
        <mxCell id="0" />
        <mxCell id="1" parent="0" />
        <mxCell id="3nlNBkMgBTsmlAE4Kx66-7" value="1" style="edgeStyle=orthogonalEdgeStyle;rounded=0;orthogonalLoop=1;jettySize=auto;html=1;exitX=1;exitY=0.5;exitDx=0;exitDy=0;entryX=0;entryY=0.5;entryDx=0;entryDy=0;endArrow=none;endFill=0;" edge="1" parent="1" source="3nlNBkMgBTsmlAE4Kx66-5" target="3nlNBkMgBTsmlAE4Kx66-6">
          <mxGeometry x="-0.8182" relative="1" as="geometry">
            <mxPoint as="offset" />
          </mxGeometry>
        </mxCell>
        <mxCell id="3nlNBkMgBTsmlAE4Kx66-11" value="N" style="edgeLabel;html=1;align=center;verticalAlign=middle;resizable=0;points=[];" vertex="1" connectable="0" parent="3nlNBkMgBTsmlAE4Kx66-7">
          <mxGeometry x="0.4182" relative="1" as="geometry">
            <mxPoint x="22" as="offset" />
          </mxGeometry>
        </mxCell>
        <mxCell id="3nlNBkMgBTsmlAE4Kx66-15" value="has" style="edgeLabel;html=1;align=center;verticalAlign=middle;resizable=0;points=[];" vertex="1" connectable="0" parent="3nlNBkMgBTsmlAE4Kx66-7">
          <mxGeometry x="-0.0494" y="2" relative="1" as="geometry">
            <mxPoint as="offset" />
          </mxGeometry>
        </mxCell>
        <mxCell id="3nlNBkMgBTsmlAE4Kx66-42" style="edgeStyle=orthogonalEdgeStyle;rounded=0;orthogonalLoop=1;jettySize=auto;html=1;exitX=0.25;exitY=0;exitDx=0;exitDy=0;entryX=0.5;entryY=1;entryDx=0;entryDy=0;" edge="1" parent="1" source="3nlNBkMgBTsmlAE4Kx66-5" target="3nlNBkMgBTsmlAE4Kx66-21">
          <mxGeometry relative="1" as="geometry" />
        </mxCell>
        <mxCell id="3nlNBkMgBTsmlAE4Kx66-43" value="changes/analyzes" style="edgeLabel;html=1;align=center;verticalAlign=middle;resizable=0;points=[];" vertex="1" connectable="0" parent="3nlNBkMgBTsmlAE4Kx66-42">
          <mxGeometry x="-0.1217" y="-2" relative="1" as="geometry">
            <mxPoint x="-19" as="offset" />
          </mxGeometry>
        </mxCell>
        <mxCell id="3nlNBkMgBTsmlAE4Kx66-44" value="1" style="edgeLabel;html=1;align=center;verticalAlign=middle;resizable=0;points=[];" vertex="1" connectable="0" parent="3nlNBkMgBTsmlAE4Kx66-42">
          <mxGeometry x="-0.9127" relative="1" as="geometry">
            <mxPoint as="offset" />
          </mxGeometry>
        </mxCell>
        <mxCell id="3nlNBkMgBTsmlAE4Kx66-55" value="N" style="edgeLabel;html=1;align=center;verticalAlign=middle;resizable=0;points=[];" vertex="1" connectable="0" parent="3nlNBkMgBTsmlAE4Kx66-42">
          <mxGeometry x="0.8594" y="2" relative="1" as="geometry">
            <mxPoint x="2" as="offset" />
          </mxGeometry>
        </mxCell>
        <mxCell id="3nlNBkMgBTsmlAE4Kx66-5" value="Minecraft Server&lt;br&gt;(virtual or physical)" style="rounded=0;whiteSpace=wrap;html=1;" vertex="1" parent="1">
          <mxGeometry x="390" y="240" width="120" height="60" as="geometry" />
        </mxCell>
        <mxCell id="3nlNBkMgBTsmlAE4Kx66-6" value="Minecraft Client" style="rounded=0;whiteSpace=wrap;html=1;" vertex="1" parent="1">
          <mxGeometry x="620" y="240" width="120" height="60" as="geometry" />
        </mxCell>
        <mxCell id="3nlNBkMgBTsmlAE4Kx66-17" style="edgeStyle=orthogonalEdgeStyle;rounded=0;orthogonalLoop=1;jettySize=auto;html=1;exitX=0.5;exitY=0;exitDx=0;exitDy=0;entryX=0.25;entryY=1;entryDx=0;entryDy=0;endArrow=classic;endFill=1;" edge="1" parent="1" source="3nlNBkMgBTsmlAE4Kx66-6" target="3nlNBkMgBTsmlAE4Kx66-14">
          <mxGeometry relative="1" as="geometry" />
        </mxCell>
        <mxCell id="3nlNBkMgBTsmlAE4Kx66-18" value="1" style="edgeLabel;html=1;align=center;verticalAlign=middle;resizable=0;points=[];" vertex="1" connectable="0" parent="3nlNBkMgBTsmlAE4Kx66-17">
          <mxGeometry x="0.3436" relative="1" as="geometry">
            <mxPoint x="29" y="-50" as="offset" />
          </mxGeometry>
        </mxCell>
        <mxCell id="3nlNBkMgBTsmlAE4Kx66-19" value="1" style="edgeLabel;html=1;align=center;verticalAlign=middle;resizable=0;points=[];" vertex="1" connectable="0" parent="3nlNBkMgBTsmlAE4Kx66-17">
          <mxGeometry x="-0.7473" y="-1" relative="1" as="geometry">
            <mxPoint x="1" y="21" as="offset" />
          </mxGeometry>
        </mxCell>
        <mxCell id="3nlNBkMgBTsmlAE4Kx66-32" value="draws" style="edgeLabel;html=1;align=center;verticalAlign=middle;resizable=0;points=[];" vertex="1" connectable="0" parent="3nlNBkMgBTsmlAE4Kx66-17">
          <mxGeometry x="0.016" relative="1" as="geometry">
            <mxPoint x="-11" as="offset" />
          </mxGeometry>
        </mxCell>
        <mxCell id="3nlNBkMgBTsmlAE4Kx66-14" value="MerchantScreen" style="rounded=0;whiteSpace=wrap;html=1;" vertex="1" parent="1">
          <mxGeometry x="850" y="20" width="110" height="60" as="geometry" />
        </mxCell>
        <mxCell id="3nlNBkMgBTsmlAE4Kx66-25" style="edgeStyle=orthogonalEdgeStyle;rounded=0;orthogonalLoop=1;jettySize=auto;html=1;exitX=0;exitY=0.5;exitDx=0;exitDy=0;entryX=1;entryY=0.5;entryDx=0;entryDy=0;endArrow=classic;endFill=1;" edge="1" parent="1" source="3nlNBkMgBTsmlAE4Kx66-20" target="3nlNBkMgBTsmlAE4Kx66-21">
          <mxGeometry relative="1" as="geometry">
            <Array as="points">
              <mxPoint x="490" y="50" />
            </Array>
          </mxGeometry>
        </mxCell>
        <mxCell id="3nlNBkMgBTsmlAE4Kx66-28" value="1" style="edgeLabel;html=1;align=center;verticalAlign=middle;resizable=0;points=[];" vertex="1" connectable="0" parent="3nlNBkMgBTsmlAE4Kx66-25">
          <mxGeometry x="-0.1929" y="-1" relative="1" as="geometry">
            <mxPoint x="17" y="1" as="offset" />
          </mxGeometry>
        </mxCell>
        <mxCell id="3nlNBkMgBTsmlAE4Kx66-29" value="1" style="edgeLabel;html=1;align=center;verticalAlign=middle;resizable=0;points=[];" vertex="1" connectable="0" parent="3nlNBkMgBTsmlAE4Kx66-25">
          <mxGeometry x="0.6821" relative="1" as="geometry">
            <mxPoint x="2" as="offset" />
          </mxGeometry>
        </mxCell>
        <mxCell id="3nlNBkMgBTsmlAE4Kx66-30" value="has" style="edgeLabel;html=1;align=center;verticalAlign=middle;resizable=0;points=[];" vertex="1" connectable="0" parent="3nlNBkMgBTsmlAE4Kx66-25">
          <mxGeometry x="0.0184" relative="1" as="geometry">
            <mxPoint as="offset" />
          </mxGeometry>
        </mxCell>
        <mxCell id="3nlNBkMgBTsmlAE4Kx66-35" style="edgeStyle=orthogonalEdgeStyle;rounded=0;orthogonalLoop=1;jettySize=auto;html=1;exitX=0.75;exitY=0;exitDx=0;exitDy=0;entryX=0.5;entryY=1;entryDx=0;entryDy=0;endArrow=classic;endFill=1;" edge="1" parent="1" source="3nlNBkMgBTsmlAE4Kx66-5" target="3nlNBkMgBTsmlAE4Kx66-20">
          <mxGeometry relative="1" as="geometry" />
        </mxCell>
        <mxCell id="3nlNBkMgBTsmlAE4Kx66-36" value="1" style="edgeLabel;html=1;align=center;verticalAlign=middle;resizable=0;points=[];" vertex="1" connectable="0" parent="3nlNBkMgBTsmlAE4Kx66-35">
          <mxGeometry x="0.9134" relative="1" as="geometry">
            <mxPoint x="-120" y="136" as="offset" />
          </mxGeometry>
        </mxCell>
        <mxCell id="3nlNBkMgBTsmlAE4Kx66-37" value="N" style="edgeLabel;html=1;align=center;verticalAlign=middle;resizable=0;points=[];" vertex="1" connectable="0" parent="3nlNBkMgBTsmlAE4Kx66-35">
          <mxGeometry x="-0.9437" y="-1" relative="1" as="geometry">
            <mxPoint x="119" y="-131" as="offset" />
          </mxGeometry>
        </mxCell>
        <mxCell id="3nlNBkMgBTsmlAE4Kx66-41" value="has" style="edgeLabel;html=1;align=center;verticalAlign=middle;resizable=0;points=[];" vertex="1" connectable="0" parent="3nlNBkMgBTsmlAE4Kx66-35">
          <mxGeometry x="0.0027" relative="1" as="geometry">
            <mxPoint as="offset" />
          </mxGeometry>
        </mxCell>
        <mxCell id="3nlNBkMgBTsmlAE4Kx66-45" style="edgeStyle=orthogonalEdgeStyle;rounded=0;orthogonalLoop=1;jettySize=auto;html=1;" edge="1" parent="1">
          <mxGeometry relative="1" as="geometry">
            <mxPoint x="670" y="40" as="sourcePoint" />
            <mxPoint x="850" y="40" as="targetPoint" />
            <Array as="points">
              <mxPoint x="670" y="40" />
              <mxPoint x="850" y="40" />
            </Array>
          </mxGeometry>
        </mxCell>
        <mxCell id="3nlNBkMgBTsmlAE4Kx66-46" value="handles/provides data" style="edgeLabel;html=1;align=center;verticalAlign=middle;resizable=0;points=[];" vertex="1" connectable="0" parent="3nlNBkMgBTsmlAE4Kx66-45">
          <mxGeometry x="-0.0801" relative="1" as="geometry">
            <mxPoint x="7" as="offset" />
          </mxGeometry>
        </mxCell>
        <mxCell id="3nlNBkMgBTsmlAE4Kx66-47" value="1" style="edgeLabel;html=1;align=center;verticalAlign=middle;resizable=0;points=[];" vertex="1" connectable="0" parent="3nlNBkMgBTsmlAE4Kx66-45">
          <mxGeometry x="-0.8923" y="-1" relative="1" as="geometry">
            <mxPoint x="9" as="offset" />
          </mxGeometry>
        </mxCell>
        <mxCell id="3nlNBkMgBTsmlAE4Kx66-48" value="1" style="edgeLabel;html=1;align=center;verticalAlign=middle;resizable=0;points=[];" vertex="1" connectable="0" parent="3nlNBkMgBTsmlAE4Kx66-45">
          <mxGeometry x="0.8165" y="1" relative="1" as="geometry">
            <mxPoint y="1" as="offset" />
          </mxGeometry>
        </mxCell>
        <mxCell id="3nlNBkMgBTsmlAE4Kx66-20" value="MerchantScreenHandler" style="rounded=0;whiteSpace=wrap;html=1;" vertex="1" parent="1">
          <mxGeometry x="530" y="20" width="140" height="60" as="geometry" />
        </mxCell>
        <mxCell id="3nlNBkMgBTsmlAE4Kx66-21" value="Merchant" style="rounded=0;whiteSpace=wrap;html=1;" vertex="1" parent="1">
          <mxGeometry x="280" y="20" width="140" height="60" as="geometry" />
        </mxCell>
        <mxCell id="3nlNBkMgBTsmlAE4Kx66-53" value="OpenAi API" style="rounded=0;whiteSpace=wrap;html=1;" vertex="1" parent="1">
          <mxGeometry x="860" y="480" width="120" height="60" as="geometry" />
        </mxCell>
        <mxCell id="3nlNBkMgBTsmlAE4Kx66-61" style="edgeStyle=orthogonalEdgeStyle;rounded=0;orthogonalLoop=1;jettySize=auto;html=1;exitX=0.25;exitY=0;exitDx=0;exitDy=0;entryX=0.75;entryY=1;entryDx=0;entryDy=0;" edge="1" parent="1" source="3nlNBkMgBTsmlAE4Kx66-56" target="3nlNBkMgBTsmlAE4Kx66-14">
          <mxGeometry relative="1" as="geometry" />
        </mxCell>
        <mxCell id="3nlNBkMgBTsmlAE4Kx66-62" value="1" style="edgeLabel;html=1;align=center;verticalAlign=middle;resizable=0;points=[];" vertex="1" connectable="0" parent="3nlNBkMgBTsmlAE4Kx66-61">
          <mxGeometry x="0.8275" relative="1" as="geometry">
            <mxPoint as="offset" />
          </mxGeometry>
        </mxCell>
        <mxCell id="3nlNBkMgBTsmlAE4Kx66-63" value="1" style="edgeLabel;html=1;align=center;verticalAlign=middle;resizable=0;points=[];" vertex="1" connectable="0" parent="3nlNBkMgBTsmlAE4Kx66-61">
          <mxGeometry x="-0.8856" relative="1" as="geometry">
            <mxPoint as="offset" />
          </mxGeometry>
        </mxCell>
        <mxCell id="3nlNBkMgBTsmlAE4Kx66-64" value="changes" style="edgeLabel;html=1;align=center;verticalAlign=middle;resizable=0;points=[];" vertex="1" connectable="0" parent="3nlNBkMgBTsmlAE4Kx66-61">
          <mxGeometry x="0.0331" y="-1" relative="1" as="geometry">
            <mxPoint y="-9" as="offset" />
          </mxGeometry>
        </mxCell>
        <mxCell id="3nlNBkMgBTsmlAE4Kx66-56" value="Client Side Mod" style="rounded=0;whiteSpace=wrap;html=1;" vertex="1" parent="1">
          <mxGeometry x="930" y="240" width="120" height="60" as="geometry" />
        </mxCell>
        <mxCell id="3nlNBkMgBTsmlAE4Kx66-65" value="writingField" style="rounded=0;whiteSpace=wrap;html=1;" vertex="1" parent="1">
          <mxGeometry x="1070" y="20" width="120" height="60" as="geometry" />
        </mxCell>
        <mxCell id="3nlNBkMgBTsmlAE4Kx66-66" value="chatBox" style="rounded=0;whiteSpace=wrap;html=1;" vertex="1" parent="1">
          <mxGeometry x="1070" y="150" width="120" height="60" as="geometry" />
        </mxCell>
      </root>
    </mxGraphModel>
  </diagram>
</mxfile>
